<svg xmlns="http://www.w3.org/2000/svg" viewBox="0 0 480 120" fill="none">
  <!-- AEDRAL wordmark seul · variante fond clair — paths Bebas Neue embedded -->

  <!-- "AE" (or foncé) -->
  <path fill="#C8941D" d="M91.7 22L106.6 22L118 92L107 92L105 78.1L105 78.3L92.5 78.3L90.5 92L80.3 92ZM103.7 68.8L98.8 34.2L98.6 34.2L93.8 68.8Z M141.3 22L171.3 22L171.3 32L152.3 32L152.3 50.5L167.4 50.5L167.4 60.5L152.3 60.5L152.3 82L171.3 82L171.3 92L141.3 92Z"/>

  <!-- "DRAL" (ink) -->
  <path fill="#08080F" d="M195.6 22L212.4 22Q220.6 22 224.7 26.4Q228.8 30.8 228.8 39.3L228.8 74.7Q228.8 83.2 224.7 87.6Q220.6 92 212.4 92L195.6 92ZM212.2 82Q214.9 82 216.35 80.4Q217.8 78.8 217.8 75.2L217.8 38.8Q217.8 35.2 216.35 33.6Q214.9 32 212.2 32L206.6 32L206.6 82Z M254.2 22L270.5 22Q279 22 282.9 25.95Q286.8 29.9 286.8 38.1L286.8 42.4Q286.8 53.3 279.6 56.2L279.6 56.4Q283.6 57.6 285.25 61.3Q286.9 65 286.9 71.2L286.9 83.5Q286.9 86.5 287.1 88.35Q287.3 90.2 288.1 92L276.9 92Q276.3 90.3 276.1 88.8Q275.9 87.3 275.9 83.4L275.9 70.6Q275.9 65.8 274.35 63.9Q272.8 62 269 62L265.2 62L265.2 92L254.2 92ZM269.2 52Q272.5 52 274.15 50.3Q275.8 48.6 275.8 44.6L275.8 39.2Q275.8 35.4 274.45 33.7Q273.1 32 270.2 32L265.2 32L265.2 52Z M321 22L335.9 22L347.3 92L336.3 92L334.3 78.1L334.3 78.3L321.8 78.3L319.8 92L309.6 92ZM333 68.8L328.1 34.2L327.9 34.2L323.1 68.8Z M370.6 22L381.6 22L381.6 82L399.7 82L399.7 92L370.6 92Z"/>
</svg>
